<?xml version="1.0" encoding="UTF-8" standalone="no"?><!DOCTYPE svg PUBLIC "-//W3C//DTD SVG 1.1//EN" "http://www.w3.org/Graphics/SVG/1.1/DTD/svg11.dtd"><svg width="100%" height="100%" viewBox="0 0 288 78" version="1.1" xmlns="http://www.w3.org/2000/svg" xmlns:xlink="http://www.w3.org/1999/xlink" xml:space="preserve" xmlns:serif="http://www.serif.com/" style="fill-rule:evenodd;clip-rule:evenodd;stroke-linejoin:round;stroke-miterlimit:1.41421;"><g id="books"><rect x="125.105" y="10.54" width="12.223" height="65.831" style="fill:#271300;"/><rect x="110.557" y="6.836" width="14.6" height="69.536" style="fill:#ff0009;"/><rect x="97.03" y="10.714" width="13.762" height="65.831" style="fill:#ffa500;"/><rect x="84.28" y="0.528" width="12.972" height="76.191" style="fill:#18b54d;"/><rect x="71.272" y="4.924" width="12.972" height="71.795" style="fill:#5d8790;"/><rect x="58.263" y="9.067" width="12.972" height="67.652" style="fill:#beaa42;"/><rect x="41.537" y="1.638" width="16.689" height="75.081" style="fill:#15e3e4;"/><rect x="20.745" y="12.534" width="20.745" height="64.185" style="fill:#e42a15;"/><rect x="0.685" y="20.865" width="20.004" height="55.854" style="fill:#d0ff00;"/><rect x="137.296" y="16.628" width="8.45" height="59.58" style="fill:#436dcc;"/><rect x="145.614" y="35.309" width="9.09" height="40.9" style="fill:#ec3117;"/><rect x="154.632" y="16.382" width="4.127" height="59.826" style="fill:#ecec17;"/><rect x="158.965" y="19.415" width="8.011" height="57.835" style="fill:#ad23af;"/><rect x="167.183" y="23.743" width="11.456" height="53.507" style="fill:#c1b5c1;"/><rect x="178.669" y="13.541" width="11.711" height="62.926" style="fill:#118b42;"/><rect x="190.115" y="13.541" width="11.711" height="62.926" style="fill:#045f29;"/><rect x="200.272" y="6.836" width="25.951" height="69.63" style="fill:#22dae0;"/><rect x="226.43" y="6.836" width="16.689" height="69.63" style="fill:#9c667b;"/><rect x="243.252" y="0.276" width="10.733" height="76.191" style="fill:#24f160;"/><rect x="254.071" y="12.281" width="16.689" height="64.185" style="fill:#6970c0;"/><rect x="270.894" y="23.743" width="16.689" height="52.723" style="fill:#c82d46;"/></g></svg>