<?xml version="1.0" encoding="UTF-8" standalone="no"?><!DOCTYPE svg PUBLIC "-//W3C//DTD SVG 1.1//EN" "http://www.w3.org/Graphics/SVG/1.1/DTD/svg11.dtd"><svg width="100%" height="100%" viewBox="0 0 197 246" version="1.1" xmlns="http://www.w3.org/2000/svg" xmlns:xlink="http://www.w3.org/1999/xlink" xml:space="preserve" xmlns:serif="http://www.serif.com/" style="fill-rule:evenodd;clip-rule:evenodd;stroke-linecap:round;stroke-linejoin:round;stroke-miterlimit:1.5;"><g id="monitor_and_arm"><g id="monitor_arm"><g><path d="M196.227,83.032l-74.136,-18.052l0,20.367l74.136,18.053l0,-20.368Z"/><path d="M196.227,89.055l-15.227,-3.708l0,133.945l15.227,3.708l0,-133.945Z"/></g></g><path d="M135.996,242.529l-86.996,0l21.749,-63.126l43.498,0l21.749,63.126Z" style="stroke:#000;stroke-width:5px;"/><g id="monitor"><path id="monitor1" serif:id="monitor" d="M162.615,60.164l-159.615,-57.164l0,110.144l159.615,57.164l0,-110.144Z" style="fill:#f4f0bf;stroke:#010808;stroke-width:5px;"/><g><path d="M88.939,122.265l-21.372,0.217l-7.43,-17.969l-14.545,-13.28l-9.439,26.41l-10.79,-24.764l-12.3,10.099" style="fill:none;stroke:#010808;stroke-width:5px;"/><path d="M9.154,74.22l0,35.321l85.509,30.624" style="fill:none;stroke:#010808;stroke-width:3px;"/></g><g><g><path d="M119.816,105.685l-12.073,-4.324l0,41.702l12.073,4.324l0,-41.702Z" style="fill:#41f725;stroke:#010808;stroke-width:5px;"/><path d="M132.5,97.148l-11.54,-4.133l0,54.831l11.54,4.133l0,-54.831Z" style="fill:#885dda;stroke:#010808;stroke-width:5px;"/><path d="M141.525,84.58l-8.026,-2.874l0,70.526l8.026,2.874l0,-70.526Z" style="fill:#da5d7e;stroke:#010808;stroke-width:5px;"/><path d="M153.207,78.921l-10.587,-3.792l0,80.334l10.587,3.791l0,-80.333Z" style="fill:#5dcdda;stroke:#010808;stroke-width:5px;"/></g><path d="M100.465,58.234l0,82.823l57.766,20.688" style="fill:none;stroke:#010808;stroke-width:3px;"/></g><g><path d="M9.98,13.015l0,57.934l87.392,31.298" style="fill:none;stroke:#010808;stroke-width:3px;"/><g><g opacity="0.720843"><path d="M19.413,18.33c0.882,0.316 1.597,1.334 1.597,2.271c0,0.938 -0.715,1.442 -1.597,1.127c-0.882,-0.316 -1.598,-1.334 -1.598,-2.271c0,-0.938 0.716,-1.443 1.598,-1.127Z" style="fill:#ff0016;"/><path d="M24.196,21.882c0.882,0.316 1.598,1.334 1.598,2.271c0,0.938 -0.716,1.442 -1.598,1.127c-0.881,-0.316 -1.597,-1.334 -1.597,-2.271c0,-0.938 0.716,-1.443 1.597,-1.127Z" style="fill:#ff0016;"/><path d="M20.885,23.812c0.882,0.316 1.598,1.333 1.598,2.271c0,0.937 -0.716,1.442 -1.598,1.126c-0.882,-0.316 -1.598,-1.333 -1.598,-2.271c0,-0.937 0.716,-1.442 1.598,-1.126Z" style="fill:#ff0016;"/><path d="M16.715,21.105c0.881,0.315 1.597,1.333 1.597,2.27c0,0.938 -0.716,1.443 -1.597,1.127c-0.882,-0.316 -1.598,-1.333 -1.598,-2.271c0,-0.937 0.716,-1.442 1.598,-1.126Z" style="fill:#ff0016;"/><path d="M27.221,27.613c0.882,0.316 1.598,1.333 1.598,2.271c0,0.937 -0.716,1.442 -1.598,1.126c-0.881,-0.316 -1.597,-1.333 -1.597,-2.271c0,-0.937 0.716,-1.442 1.597,-1.126Z" style="fill:#ff0016;"/><path d="M29.185,24.848c0.882,0.316 1.598,1.333 1.598,2.271c0,0.937 -0.716,1.442 -1.598,1.126c-0.882,-0.316 -1.598,-1.333 -1.598,-2.271c0,-0.937 0.716,-1.442 1.598,-1.126Z" style="fill:#ff0016;"/><path d="M23.418,28.061c0.882,0.316 1.598,1.333 1.598,2.271c0,0.937 -0.716,1.442 -1.598,1.126c-0.882,-0.316 -1.598,-1.333 -1.598,-2.271c0,-0.937 0.716,-1.442 1.598,-1.126Z" style="fill:#ff0016;"/><path d="M18.484,27.407c0.882,0.316 1.598,1.333 1.598,2.271c0,0.937 -0.716,1.442 -1.598,1.126c-0.881,-0.315 -1.597,-1.333 -1.597,-2.27c0,-0.938 0.716,-1.443 1.597,-1.127Z" style="fill:#ff0016;"/><path d="M23.334,16.657c0.882,0.316 1.598,1.333 1.598,2.271c0,0.937 -0.716,1.442 -1.598,1.126c-0.882,-0.315 -1.598,-1.333 -1.598,-2.271c0,-0.937 0.716,-1.442 1.598,-1.126Z" style="fill:#ff0016;"/><path d="M27.508,33.31c0.882,0.316 1.598,1.333 1.598,2.271c0,0.937 -0.716,1.442 -1.598,1.126c-0.882,-0.316 -1.598,-1.333 -1.598,-2.271c0,-0.937 0.716,-1.442 1.598,-1.126Z" style="fill:#ff0016;"/><path d="M32.482,31.574c0.882,0.316 1.598,1.334 1.598,2.271c0,0.938 -0.716,1.442 -1.598,1.126c-0.882,-0.315 -1.598,-1.333 -1.598,-2.27c0,-0.938 0.716,-1.443 1.598,-1.127Z" style="fill:#ff0016;"/><path d="M23.002,33.817c0.882,0.315 1.598,1.333 1.598,2.271c0,0.937 -0.716,1.442 -1.598,1.126c-0.881,-0.316 -1.597,-1.333 -1.597,-2.271c0,-0.937 0.716,-1.442 1.597,-1.126Z" style="fill:#ff0016;"/><path d="M33.768,36.72c0.882,0.316 1.598,1.333 1.598,2.271c0,0.937 -0.716,1.442 -1.598,1.126c-0.882,-0.316 -1.598,-1.333 -1.598,-2.271c0,-0.937 0.716,-1.442 1.598,-1.126Z" style="fill:#ff0016;"/><path d="M36.482,34.931c0.882,0.316 1.598,1.334 1.598,2.271c0,0.938 -0.716,1.442 -1.598,1.127c-0.882,-0.316 -1.598,-1.334 -1.598,-2.271c0,-0.938 0.716,-1.442 1.598,-1.127Z" style="fill:#ff0016;"/><path d="M29.376,38.387c0.882,0.316 1.598,1.334 1.598,2.271c0,0.938 -0.716,1.443 -1.598,1.127c-0.882,-0.316 -1.598,-1.334 -1.598,-2.271c0,-0.938 0.716,-1.442 1.598,-1.127Z" style="fill:#ff0016;"/><path d="M33.818,43.709c0.882,0.316 1.598,1.333 1.598,2.271c0,0.937 -0.716,1.442 -1.598,1.126c-0.882,-0.316 -1.598,-1.333 -1.598,-2.271c0,-0.937 0.716,-1.442 1.598,-1.126Z" style="fill:#ff0016;"/><path d="M37.338,51.424c0.882,0.316 1.598,1.333 1.598,2.271c0,0.937 -0.716,1.442 -1.598,1.126c-0.882,-0.315 -1.598,-1.333 -1.598,-2.27c0,-0.938 0.716,-1.443 1.598,-1.127Z" style="fill:#ff0016;"/><path d="M38.479,46.767c0.882,0.316 1.598,1.334 1.598,2.271c0,0.938 -0.716,1.442 -1.598,1.127c-0.881,-0.316 -1.597,-1.334 -1.597,-2.271c0,-0.938 0.716,-1.443 1.597,-1.127Z" style="fill:#ff0016;"/><path d="M43.845,58.589c0.882,0.316 1.598,1.333 1.598,2.271c0,0.937 -0.716,1.442 -1.598,1.126c-0.882,-0.315 -1.598,-1.333 -1.598,-2.271c0,-0.937 0.716,-1.442 1.598,-1.126Z" style="fill:#ff0016;"/><path d="M50.568,65.632c0.882,0.316 1.598,1.334 1.598,2.271c0,0.938 -0.716,1.442 -1.598,1.127c-0.882,-0.316 -1.598,-1.334 -1.598,-2.271c0,-0.938 0.716,-1.443 1.598,-1.127Z" style="fill:#ff0016;"/><path d="M55.248,70.393c0.882,0.315 1.598,1.333 1.598,2.271c0,0.937 -0.716,1.442 -1.598,1.126c-0.882,-0.316 -1.598,-1.333 -1.598,-2.271c0,-0.937 0.716,-1.442 1.598,-1.126Z" style="fill:#ff0016;"/><path d="M61.772,76.222c0.882,0.316 1.598,1.333 1.598,2.271c0,0.937 -0.716,1.442 -1.598,1.126c-0.882,-0.316 -1.597,-1.333 -1.597,-2.271c0,-0.937 0.715,-1.442 1.597,-1.126Z" style="fill:#ff0016;"/><path d="M68.268,78.143c0.882,0.315 1.598,1.333 1.598,2.27c0,0.938 -0.716,1.443 -1.598,1.127c-0.882,-0.316 -1.598,-1.333 -1.598,-2.271c0,-0.938 0.716,-1.442 1.598,-1.126Z" style="fill:#ff0016;"/><path d="M63.934,72.77c0.882,0.316 1.598,1.333 1.598,2.271c0,0.937 -0.716,1.442 -1.598,1.126c-0.882,-0.316 -1.598,-1.333 -1.598,-2.271c0,-0.937 0.716,-1.442 1.598,-1.126Z" style="fill:#ff0016;"/><path d="M73.827,81.818c0.882,0.316 1.598,1.333 1.598,2.271c0,0.937 -0.716,1.442 -1.598,1.126c-0.882,-0.316 -1.598,-1.333 -1.598,-2.271c0,-0.937 0.716,-1.442 1.598,-1.126Z" style="fill:#ff0016;"/><path d="M77.183,87.721c0.881,0.316 1.597,1.333 1.597,2.271c0,0.937 -0.716,1.442 -1.597,1.126c-0.882,-0.316 -1.598,-1.333 -1.598,-2.271c0,-0.937 0.716,-1.442 1.598,-1.126Z" style="fill:#ff0016;"/><path d="M80.73,84.842c0.881,0.316 1.597,1.334 1.597,2.271c0,0.938 -0.716,1.442 -1.597,1.127c-0.882,-0.316 -1.598,-1.334 -1.598,-2.271c0,-0.938 0.716,-1.443 1.598,-1.127Z" style="fill:#ff0016;"/><path d="M38.157,41.833c0.882,0.315 1.598,1.333 1.598,2.271c0,0.937 -0.716,1.442 -1.598,1.126c-0.881,-0.316 -1.597,-1.333 -1.597,-2.271c0,-0.937 0.716,-1.442 1.597,-1.126Z" style="fill:#ff0016;"/><path d="M41.367,39.493c0.882,0.316 1.598,1.333 1.598,2.271c0,0.937 -0.716,1.442 -1.598,1.126c-0.882,-0.316 -1.598,-1.333 -1.598,-2.271c0,-0.937 0.716,-1.442 1.598,-1.126Z" style="fill:#ff0016;"/><path d="M43.845,45.718c0.882,0.315 1.598,1.333 1.598,2.27c0,0.938 -0.716,1.443 -1.598,1.127c-0.882,-0.316 -1.598,-1.334 -1.598,-2.271c0,-0.938 0.716,-1.442 1.598,-1.126Z" style="fill:#ff0016;"/><path d="M44.905,41.831c0.882,0.316 1.598,1.333 1.598,2.271c0,0.937 -0.716,1.442 -1.598,1.126c-0.882,-0.315 -1.598,-1.333 -1.598,-2.27c0,-0.938 0.716,-1.443 1.598,-1.127Z" style="fill:#ff0016;"/><path d="M48.269,47.505c0.881,0.316 1.597,1.333 1.597,2.271c0,0.937 -0.716,1.442 -1.597,1.126c-0.882,-0.315 -1.598,-1.333 -1.598,-2.271c0,-0.937 0.716,-1.442 1.598,-1.126Z" style="fill:#ff0016;"/><path d="M45.715,55.71c0.882,0.315 1.598,1.333 1.598,2.27c0,0.938 -0.716,1.443 -1.598,1.127c-0.882,-0.316 -1.598,-1.333 -1.598,-2.271c0,-0.938 0.716,-1.442 1.598,-1.126Z" style="fill:#ff0016;"/><path d="M51.167,53.769c0.882,0.316 1.598,1.333 1.598,2.271c0,0.937 -0.716,1.442 -1.598,1.126c-0.881,-0.315 -1.597,-1.333 -1.597,-2.27c0,-0.938 0.716,-1.443 1.597,-1.127Z" style="fill:#ff0016;"/><path d="M49.422,60.143c0.882,0.316 1.598,1.333 1.598,2.271c0,0.937 -0.716,1.442 -1.598,1.126c-0.882,-0.316 -1.598,-1.333 -1.598,-2.271c0,-0.937 0.716,-1.442 1.598,-1.126Z" style="fill:#ff0016;"/><path d="M53.495,58.772c0.882,0.316 1.598,1.333 1.598,2.271c0,0.937 -0.716,1.442 -1.598,1.126c-0.882,-0.316 -1.598,-1.333 -1.598,-2.271c0,-0.937 0.716,-1.442 1.598,-1.126Z" style="fill:#ff0016;"/><path d="M53.497,49.624c0.882,0.316 1.598,1.333 1.598,2.271c0,0.937 -0.716,1.442 -1.598,1.126c-0.881,-0.316 -1.597,-1.333 -1.597,-2.271c0,-0.937 0.716,-1.442 1.597,-1.126Z" style="fill:#ff0016;"/><path d="M55.565,55.581c0.882,0.316 1.598,1.333 1.598,2.271c0,0.937 -0.716,1.442 -1.598,1.126c-0.882,-0.316 -1.598,-1.333 -1.598,-2.271c0,-0.937 0.716,-1.442 1.598,-1.126Z" style="fill:#ff0016;"/><path d="M53.294,63.08c0.881,0.316 1.597,1.334 1.597,2.271c0,0.938 -0.716,1.442 -1.597,1.127c-0.882,-0.316 -1.598,-1.334 -1.598,-2.271c0,-0.938 0.716,-1.443 1.598,-1.127Z" style="fill:#ff0016;"/><path d="M58.213,60.798c0.882,0.316 1.598,1.333 1.598,2.271c0,0.937 -0.716,1.442 -1.598,1.126c-0.882,-0.316 -1.598,-1.333 -1.598,-2.271c0,-0.937 0.716,-1.442 1.598,-1.126Z" style="fill:#ff0016;"/><path d="M63.77,64.082c0.882,0.316 1.598,1.333 1.598,2.271c0,0.937 -0.716,1.442 -1.598,1.126c-0.882,-0.316 -1.598,-1.333 -1.598,-2.271c0,-0.937 0.716,-1.442 1.598,-1.126Z" style="fill:#ff0016;"/><path d="M60.526,66.345c0.882,0.316 1.598,1.334 1.598,2.271c0,0.938 -0.716,1.442 -1.598,1.127c-0.882,-0.316 -1.597,-1.334 -1.597,-2.271c0,-0.938 0.715,-1.442 1.597,-1.127Z" style="fill:#ff0016;"/><path d="M59.124,70.471c0.882,0.316 1.598,1.334 1.598,2.271c0,0.938 -0.716,1.442 -1.598,1.126c-0.881,-0.315 -1.597,-1.333 -1.597,-2.27c0,-0.938 0.716,-1.443 1.597,-1.127Z" style="fill:#ff0016;"/><path d="M56.698,66.326c0.882,0.316 1.598,1.334 1.598,2.271c0,0.938 -0.716,1.443 -1.598,1.127c-0.881,-0.316 -1.597,-1.334 -1.597,-2.271c0,-0.938 0.716,-1.442 1.597,-1.127Z" style="fill:#ff0016;"/><path d="M65.3,68.636c0.882,0.316 1.597,1.333 1.597,2.271c0,0.937 -0.715,1.442 -1.597,1.126c-0.882,-0.316 -1.598,-1.333 -1.598,-2.271c0,-0.937 0.716,-1.442 1.598,-1.126Z" style="fill:#ff0016;"/><path d="M64.885,80.149c0.882,0.316 1.598,1.334 1.598,2.271c0,0.938 -0.716,1.443 -1.598,1.127c-0.882,-0.316 -1.598,-1.334 -1.598,-2.271c0,-0.938 0.716,-1.442 1.598,-1.127Z" style="fill:#ff0016;"/><path d="M69.836,83.913c0.882,0.316 1.598,1.333 1.598,2.271c0,0.937 -0.716,1.442 -1.598,1.126c-0.882,-0.315 -1.598,-1.333 -1.598,-2.27c0,-0.938 0.716,-1.443 1.598,-1.127Z" style="fill:#ff0016;"/><path d="M68.039,73.854c0.882,0.315 1.598,1.333 1.598,2.27c0,0.938 -0.716,1.443 -1.598,1.127c-0.882,-0.316 -1.598,-1.333 -1.598,-2.271c0,-0.938 0.716,-1.442 1.598,-1.126Z" style="fill:#ff0016;"/><path d="M72.92,76.813c0.882,0.316 1.598,1.333 1.598,2.271c0,0.937 -0.716,1.442 -1.598,1.126c-0.881,-0.316 -1.597,-1.333 -1.597,-2.271c0,-0.937 0.716,-1.442 1.597,-1.126Z" style="fill:#ff0016;"/><path d="M77.281,81.319c0.881,0.316 1.597,1.333 1.597,2.271c0,0.937 -0.716,1.442 -1.597,1.126c-0.882,-0.316 -1.598,-1.333 -1.598,-2.271c0,-0.937 0.716,-1.442 1.598,-1.126Z" style="fill:#ff0016;"/><path d="M70.997,70.962c0.881,0.316 1.597,1.334 1.597,2.271c0,0.938 -0.716,1.442 -1.597,1.126c-0.882,-0.315 -1.598,-1.333 -1.598,-2.27c0,-0.938 0.716,-1.443 1.598,-1.127Z" style="fill:#ff0016;"/><path d="M75.574,74.727c0.882,0.316 1.598,1.333 1.598,2.271c0,0.937 -0.716,1.442 -1.598,1.126c-0.882,-0.316 -1.598,-1.333 -1.598,-2.271c0,-0.937 0.716,-1.442 1.598,-1.126Z" style="fill:#ff0016;"/><path d="M79.628,78.425c0.882,0.316 1.598,1.333 1.598,2.271c0,0.937 -0.716,1.442 -1.598,1.126c-0.882,-0.316 -1.598,-1.333 -1.598,-2.271c0,-0.937 0.716,-1.442 1.598,-1.126Z" style="fill:#ff0016;"/><path d="M81.302,89.524c0.882,0.316 1.598,1.333 1.598,2.271c0,0.937 -0.716,1.442 -1.598,1.126c-0.882,-0.315 -1.598,-1.333 -1.598,-2.27c0,-0.938 0.716,-1.443 1.598,-1.127Z" style="fill:#ff0016;"/><path d="M83.507,81.74c0.882,0.316 1.598,1.333 1.598,2.271c0,0.937 -0.716,1.442 -1.598,1.126c-0.882,-0.316 -1.597,-1.333 -1.597,-2.271c0,-0.937 0.715,-1.442 1.597,-1.126Z" style="fill:#ff0016;"/><path d="M61.071,58.741c0.882,0.315 1.598,1.333 1.598,2.27c0,0.938 -0.716,1.443 -1.598,1.127c-0.882,-0.316 -1.597,-1.334 -1.597,-2.271c0,-0.938 0.715,-1.442 1.597,-1.126Z" style="fill:#ff0016;"/><path d="M42.096,49.695c0.882,0.316 1.598,1.334 1.598,2.271c0,0.938 -0.716,1.443 -1.598,1.127c-0.882,-0.316 -1.598,-1.334 -1.598,-2.271c0,-0.938 0.716,-1.442 1.598,-1.127Z" style="fill:#ff0016;"/><path d="M41.697,53.964c0.882,0.315 1.598,1.333 1.598,2.271c0,0.937 -0.716,1.442 -1.598,1.126c-0.882,-0.316 -1.598,-1.333 -1.598,-2.271c0,-0.937 0.716,-1.442 1.598,-1.126Z" style="fill:#ff0016;"/><path d="M47.041,51.696c0.881,0.315 1.597,1.333 1.597,2.27c0,0.938 -0.716,1.443 -1.597,1.127c-0.882,-0.316 -1.598,-1.333 -1.598,-2.271c0,-0.937 0.716,-1.442 1.598,-1.126Z" style="fill:#ff0016;"/></g></g><g><g><g opacity="0.720843"><path d="M20.083,63.352c0.812,0.291 1.472,1.228 1.472,2.092c0,0.864 -0.66,1.329 -1.472,1.038c-0.813,-0.291 -1.472,-1.229 -1.472,-2.092c0,-0.864 0.659,-1.329 1.472,-1.038Z" style="fill:#9b9bf3;"/><path d="M16.744,65.076c0.812,0.29 1.472,1.228 1.472,2.092c0,0.863 -0.66,1.328 -1.472,1.037c-0.813,-0.291 -1.472,-1.228 -1.472,-2.092c0,-0.863 0.659,-1.328 1.472,-1.037Z" style="fill:#9b9bf3;"/><path d="M19.828,67.104c0.812,0.291 1.472,1.229 1.472,2.093c0,0.863 -0.66,1.328 -1.472,1.037c-0.813,-0.291 -1.472,-1.228 -1.472,-2.092c0,-0.863 0.659,-1.328 1.472,-1.038Z" style="fill:#9b9bf3;"/><path d="M23.686,66.427c0.812,0.291 1.472,1.229 1.472,2.093c0,0.863 -0.66,1.328 -1.472,1.037c-0.813,-0.291 -1.472,-1.228 -1.472,-2.092c0,-0.863 0.659,-1.328 1.472,-1.038Z" style="fill:#9b9bf3;"/><path d="M23.893,62.123c0.813,0.291 1.472,1.228 1.472,2.092c0,0.864 -0.659,1.329 -1.472,1.038c-0.812,-0.291 -1.472,-1.228 -1.472,-2.092c0,-0.864 0.66,-1.329 1.472,-1.038Z" style="fill:#9b9bf3;"/><path d="M20.983,58.675c0.812,0.291 1.472,1.228 1.472,2.092c0,0.864 -0.66,1.329 -1.472,1.038c-0.813,-0.291 -1.472,-1.229 -1.472,-2.092c0,-0.864 0.659,-1.329 1.472,-1.038Z" style="fill:#9b9bf3;"/><path d="M27.689,65.13c0.813,0.291 1.472,1.228 1.472,2.092c0,0.863 -0.659,1.329 -1.472,1.038c-0.812,-0.291 -1.472,-1.229 -1.472,-2.093c0,-0.863 0.66,-1.328 1.472,-1.037Z" style="fill:#9b9bf3;"/><path d="M28.092,61.702c0.812,0.291 1.472,1.229 1.472,2.093c0,0.863 -0.66,1.328 -1.472,1.037c-0.813,-0.291 -1.472,-1.228 -1.472,-2.092c0,-0.863 0.659,-1.329 1.472,-1.038Z" style="fill:#9b9bf3;"/><path d="M25.149,57.749c0.813,0.291 1.472,1.228 1.472,2.092c0,0.864 -0.659,1.329 -1.472,1.038c-0.812,-0.291 -1.472,-1.229 -1.472,-2.092c0,-0.864 0.66,-1.329 1.472,-1.038Z" style="fill:#9b9bf3;"/><path d="M26.858,68.848c0.813,0.291 1.472,1.229 1.472,2.092c0,0.864 -0.659,1.329 -1.472,1.038c-0.812,-0.291 -1.472,-1.228 -1.472,-2.092c0,-0.864 0.66,-1.329 1.472,-1.038Z" style="fill:#9b9bf3;"/><path d="M29.393,57.489c0.813,0.291 1.472,1.229 1.472,2.092c0,0.864 -0.659,1.329 -1.472,1.038c-0.812,-0.291 -1.472,-1.228 -1.472,-2.092c0,-0.864 0.66,-1.329 1.472,-1.038Z" style="fill:#9b9bf3;"/><path d="M32.118,65.776c0.812,0.291 1.472,1.229 1.472,2.092c0,0.864 -0.66,1.329 -1.472,1.038c-0.812,-0.291 -1.472,-1.228 -1.472,-2.092c0,-0.864 0.66,-1.329 1.472,-1.038Z" style="fill:#9b9bf3;"/><path d="M32.851,61.845c0.813,0.291 1.472,1.228 1.472,2.092c0,0.864 -0.659,1.329 -1.472,1.038c-0.812,-0.291 -1.472,-1.229 -1.472,-2.092c0,-0.864 0.66,-1.329 1.472,-1.038Z" style="fill:#9b9bf3;"/><path d="M26.419,54.085c0.812,0.291 1.472,1.218 1.472,2.069c0,0.85 -0.66,1.305 -1.472,1.014c-0.812,-0.291 -1.472,-1.218 -1.472,-2.069c0,-0.85 0.66,-1.305 1.472,-1.014Z" style="fill:#9b9bf3;"/><path d="M33.652,58.345c0.813,0.291 1.472,1.228 1.472,2.092c0,0.864 -0.659,1.329 -1.472,1.038c-0.812,-0.291 -1.472,-1.229 -1.472,-2.093c0,-0.863 0.66,-1.328 1.472,-1.037Z" style="fill:#9b9bf3;"/><path d="M29.745,52.889c0.812,0.291 1.472,1.228 1.472,2.092c0,0.864 -0.66,1.329 -1.472,1.038c-0.812,-0.291 -1.472,-1.229 -1.472,-2.093c0,-0.863 0.66,-1.328 1.472,-1.037Z" style="fill:#9b9bf3;"/><path d="M40.264,60.304c0.812,0.291 1.472,1.228 1.472,2.092c0,0.864 -0.66,1.329 -1.472,1.038c-0.813,-0.291 -1.472,-1.229 -1.472,-2.092c0,-0.864 0.659,-1.329 1.472,-1.038Z" style="fill:#9b9bf3;"/><path d="M37.996,57.298c0.812,0.291 1.472,1.228 1.472,2.092c0,0.864 -0.66,1.329 -1.472,1.038c-0.813,-0.291 -1.472,-1.229 -1.472,-2.092c0,-0.864 0.659,-1.329 1.472,-1.038Z" style="fill:#9b9bf3;"/><path d="M34.933,54.863c0.813,0.291 1.472,1.229 1.472,2.092c0,0.864 -0.659,1.329 -1.472,1.038c-0.812,-0.291 -1.472,-1.228 -1.472,-2.092c0,-0.864 0.66,-1.329 1.472,-1.038Z" style="fill:#9b9bf3;"/><path d="M36.925,62.028c0.812,0.29 1.472,1.228 1.472,2.092c0,0.863 -0.66,1.328 -1.472,1.037c-0.813,-0.291 -1.472,-1.228 -1.472,-2.092c0,-0.863 0.659,-1.328 1.472,-1.037Z" style="fill:#9b9bf3;"/><path d="M40.009,64.056c0.812,0.291 1.472,1.229 1.472,2.093c0,0.863 -0.66,1.328 -1.472,1.037c-0.813,-0.291 -1.472,-1.228 -1.472,-2.092c0,-0.863 0.659,-1.328 1.472,-1.038Z" style="fill:#9b9bf3;"/><path d="M43.867,63.379c0.812,0.291 1.472,1.229 1.472,2.093c0,0.863 -0.66,1.328 -1.472,1.037c-0.813,-0.291 -1.472,-1.228 -1.472,-2.092c0,-0.863 0.659,-1.328 1.472,-1.038Z" style="fill:#9b9bf3;"/><path d="M44.074,59.075c0.813,0.291 1.472,1.228 1.472,2.092c0,0.864 -0.659,1.329 -1.472,1.038c-0.812,-0.291 -1.472,-1.228 -1.472,-2.092c0,-0.864 0.66,-1.329 1.472,-1.038Z" style="fill:#9b9bf3;"/><path d="M41.164,55.627c0.812,0.291 1.472,1.228 1.472,2.092c0,0.864 -0.66,1.329 -1.472,1.038c-0.813,-0.291 -1.472,-1.229 -1.472,-2.092c0,-0.864 0.659,-1.329 1.472,-1.038Z" style="fill:#9b9bf3;"/><path d="M47.87,62.082c0.813,0.291 1.472,1.228 1.472,2.092c0,0.863 -0.659,1.329 -1.472,1.038c-0.812,-0.291 -1.472,-1.229 -1.472,-2.093c0,-0.863 0.66,-1.328 1.472,-1.037Z" style="fill:#9b9bf3;"/><path d="M48.273,58.654c0.812,0.291 1.472,1.229 1.472,2.093c0,0.863 -0.66,1.328 -1.472,1.037c-0.813,-0.291 -1.472,-1.228 -1.472,-2.092c0,-0.864 0.659,-1.329 1.472,-1.038Z" style="fill:#9b9bf3;"/><path d="M45.33,54.701c0.813,0.291 1.472,1.228 1.472,2.092c0,0.864 -0.659,1.329 -1.472,1.038c-0.812,-0.291 -1.472,-1.229 -1.472,-2.092c0,-0.864 0.66,-1.329 1.472,-1.038Z" style="fill:#9b9bf3;"/><path d="M47.039,65.8c0.813,0.291 1.472,1.229 1.472,2.092c0,0.864 -0.659,1.329 -1.472,1.038c-0.812,-0.291 -1.472,-1.228 -1.472,-2.092c0,-0.864 0.66,-1.329 1.472,-1.038Z" style="fill:#9b9bf3;"/><path d="M49.574,54.441c0.813,0.291 1.472,1.229 1.472,2.092c0,0.864 -0.659,1.329 -1.472,1.038c-0.812,-0.291 -1.472,-1.228 -1.472,-2.092c0,-0.864 0.66,-1.329 1.472,-1.038Z" style="fill:#9b9bf3;"/><path d="M52.299,62.728c0.812,0.291 1.472,1.229 1.472,2.092c0,0.864 -0.66,1.329 -1.472,1.038c-0.812,-0.291 -1.472,-1.228 -1.472,-2.092c0,-0.864 0.66,-1.329 1.472,-1.038Z" style="fill:#9b9bf3;"/><path d="M53.032,58.797c0.813,0.291 1.472,1.228 1.472,2.092c0,0.864 -0.659,1.329 -1.472,1.038c-0.812,-0.291 -1.472,-1.229 -1.472,-2.092c0,-0.864 0.66,-1.329 1.472,-1.038Z" style="fill:#9b9bf3;"/><path d="M46.6,51.037c0.812,0.291 1.472,1.218 1.472,2.069c0,0.85 -0.66,1.305 -1.472,1.014c-0.813,-0.291 -1.472,-1.218 -1.472,-2.069c0,-0.85 0.659,-1.305 1.472,-1.014Z" style="fill:#9b9bf3;"/><path d="M53.833,55.297c0.813,0.291 1.472,1.228 1.472,2.092c0,0.864 -0.659,1.329 -1.472,1.038c-0.812,-0.291 -1.472,-1.229 -1.472,-2.093c0,-0.863 0.66,-1.328 1.472,-1.037Z" style="fill:#9b9bf3;"/><path d="M49.926,49.841c0.812,0.291 1.472,1.228 1.472,2.092c0,0.864 -0.66,1.329 -1.472,1.038c-0.812,-0.291 -1.472,-1.229 -1.472,-2.093c0,-0.863 0.66,-1.328 1.472,-1.037Z" style="fill:#9b9bf3;"/><path d="M34.503,47.182c0.812,0.291 1.472,1.228 1.472,2.092c0,0.864 -0.66,1.329 -1.472,1.038c-0.812,-0.291 -1.472,-1.229 -1.472,-2.092c0,-0.864 0.66,-1.329 1.472,-1.038Z" style="fill:#9b9bf3;"/><path d="M31.164,48.906c0.813,0.291 1.472,1.228 1.472,2.092c0,0.863 -0.659,1.328 -1.472,1.037c-0.812,-0.29 -1.472,-1.228 -1.472,-2.092c0,-0.863 0.66,-1.328 1.472,-1.037Z" style="fill:#9b9bf3;"/><path d="M34.248,50.935c0.812,0.29 1.472,1.228 1.472,2.092c0,0.863 -0.66,1.328 -1.472,1.037c-0.812,-0.29 -1.472,-1.228 -1.472,-2.092c0,-0.863 0.66,-1.328 1.472,-1.037Z" style="fill:#9b9bf3;"/><path d="M38.106,50.258c0.812,0.29 1.472,1.228 1.472,2.092c0,0.863 -0.66,1.328 -1.472,1.037c-0.812,-0.291 -1.472,-1.228 -1.472,-2.092c0,-0.863 0.66,-1.328 1.472,-1.037Z" style="fill:#9b9bf3;"/><path d="M38.314,45.953c0.812,0.291 1.472,1.229 1.472,2.092c0,0.864 -0.66,1.329 -1.472,1.038c-0.813,-0.291 -1.472,-1.228 -1.472,-2.092c0,-0.864 0.659,-1.329 1.472,-1.038Z" style="fill:#9b9bf3;"/><path d="M35.403,42.505c0.813,0.291 1.472,1.228 1.472,2.092c0,0.864 -0.659,1.329 -1.472,1.038c-0.812,-0.291 -1.472,-1.229 -1.472,-2.092c0,-0.864 0.66,-1.329 1.472,-1.038Z" style="fill:#9b9bf3;"/><path d="M42.11,48.96c0.812,0.291 1.472,1.228 1.472,2.092c0,0.864 -0.66,1.329 -1.472,1.038c-0.813,-0.291 -1.472,-1.229 -1.472,-2.093c0,-0.863 0.659,-1.328 1.472,-1.037Z" style="fill:#9b9bf3;"/><path d="M42.512,45.532c0.813,0.291 1.472,1.229 1.472,2.093c0,0.863 -0.659,1.328 -1.472,1.037c-0.812,-0.291 -1.472,-1.228 -1.472,-2.092c0,-0.863 0.66,-1.328 1.472,-1.038Z" style="fill:#9b9bf3;"/><path d="M39.57,41.579c0.812,0.291 1.472,1.228 1.472,2.092c0,0.864 -0.66,1.329 -1.472,1.038c-0.813,-0.291 -1.472,-1.229 -1.472,-2.092c0,-0.864 0.659,-1.329 1.472,-1.038Z" style="fill:#9b9bf3;"/><path d="M41.279,52.678c0.812,0.291 1.472,1.229 1.472,2.092c0,0.864 -0.66,1.329 -1.472,1.038c-0.813,-0.291 -1.472,-1.228 -1.472,-2.092c0,-0.864 0.659,-1.329 1.472,-1.038Z" style="fill:#9b9bf3;"/><path d="M43.814,41.319c0.812,0.291 1.472,1.229 1.472,2.092c0,0.864 -0.66,1.329 -1.472,1.038c-0.813,-0.291 -1.472,-1.228 -1.472,-2.092c0,-0.864 0.659,-1.329 1.472,-1.038Z" style="fill:#9b9bf3;"/><path d="M46.538,49.606c0.813,0.291 1.472,1.229 1.472,2.092c0,0.864 -0.659,1.329 -1.472,1.038c-0.812,-0.291 -1.472,-1.228 -1.472,-2.092c0,-0.864 0.66,-1.329 1.472,-1.038Z" style="fill:#9b9bf3;"/><path d="M47.272,45.675c0.812,0.291 1.472,1.228 1.472,2.092c0,0.864 -0.66,1.329 -1.472,1.038c-0.813,-0.291 -1.472,-1.229 -1.472,-2.092c0,-0.864 0.659,-1.329 1.472,-1.038Z" style="fill:#9b9bf3;"/><path d="M40.839,37.915c0.813,0.291 1.472,1.218 1.472,2.069c0,0.85 -0.659,1.305 -1.472,1.014c-0.812,-0.291 -1.472,-1.218 -1.472,-2.069c0,-0.85 0.66,-1.305 1.472,-1.014Z" style="fill:#9b9bf3;"/><path d="M48.073,42.175c0.812,0.291 1.472,1.228 1.472,2.092c0,0.864 -0.66,1.329 -1.472,1.038c-0.813,-0.291 -1.472,-1.229 -1.472,-2.092c0,-0.864 0.659,-1.329 1.472,-1.038Z" style="fill:#9b9bf3;"/><path d="M44.165,36.719c0.813,0.291 1.472,1.228 1.472,2.092c0,0.864 -0.659,1.329 -1.472,1.038c-0.812,-0.291 -1.472,-1.229 -1.472,-2.092c0,-0.864 0.66,-1.329 1.472,-1.038Z" style="fill:#9b9bf3;"/><path d="M53.679,44.096c0.812,0.291 1.472,1.228 1.472,2.092c0,0.864 -0.66,1.329 -1.472,1.038c-0.813,-0.291 -1.472,-1.228 -1.472,-2.092c0,-0.864 0.659,-1.329 1.472,-1.038Z" style="fill:#9b9bf3;"/><path d="M50.34,45.82c0.812,0.291 1.472,1.228 1.472,2.092c0,0.864 -0.66,1.329 -1.472,1.038c-0.812,-0.291 -1.472,-1.229 -1.472,-2.092c0,-0.864 0.66,-1.329 1.472,-1.038Z" style="fill:#9b9bf3;"/><path d="M53.424,47.849c0.812,0.291 1.472,1.228 1.472,2.092c0,0.864 -0.66,1.329 -1.472,1.038c-0.813,-0.291 -1.472,-1.229 -1.472,-2.093c0,-0.863 0.659,-1.328 1.472,-1.037Z" style="fill:#9b9bf3;"/><path d="M57.282,47.172c0.812,0.291 1.472,1.228 1.472,2.092c0,0.864 -0.66,1.329 -1.472,1.038c-0.813,-0.291 -1.472,-1.229 -1.472,-2.093c0,-0.863 0.659,-1.328 1.472,-1.037Z" style="fill:#9b9bf3;"/><path d="M57.489,42.867c0.813,0.291 1.472,1.229 1.472,2.092c0,0.864 -0.659,1.329 -1.472,1.038c-0.812,-0.291 -1.472,-1.228 -1.472,-2.092c0,-0.864 0.66,-1.329 1.472,-1.038Z" style="fill:#9b9bf3;"/><path d="M54.579,39.419c0.812,0.291 1.472,1.229 1.472,2.092c0,0.864 -0.66,1.329 -1.472,1.038c-0.813,-0.291 -1.472,-1.228 -1.472,-2.092c0,-0.864 0.659,-1.329 1.472,-1.038Z" style="fill:#9b9bf3;"/><path d="M61.285,45.874c0.813,0.291 1.472,1.228 1.472,2.092c0,0.864 -0.659,1.329 -1.472,1.038c-0.812,-0.291 -1.472,-1.229 -1.472,-2.092c0,-0.864 0.66,-1.329 1.472,-1.038Z" style="fill:#9b9bf3;"/><path d="M61.688,42.447c0.812,0.291 1.472,1.228 1.472,2.092c0,0.864 -0.66,1.329 -1.472,1.038c-0.812,-0.291 -1.472,-1.229 -1.472,-2.093c0,-0.863 0.66,-1.328 1.472,-1.037Z" style="fill:#9b9bf3;"/><path d="M58.745,38.493c0.813,0.291 1.473,1.228 1.473,2.092c0,0.864 -0.66,1.329 -1.473,1.038c-0.812,-0.291 -1.472,-1.229 -1.472,-2.092c0,-0.864 0.66,-1.329 1.472,-1.038Z" style="fill:#9b9bf3;"/><path d="M60.454,49.592c0.813,0.291 1.472,1.229 1.472,2.092c0,0.864 -0.659,1.329 -1.472,1.038c-0.812,-0.291 -1.472,-1.228 -1.472,-2.092c0,-0.864 0.66,-1.329 1.472,-1.038Z" style="fill:#9b9bf3;"/><path d="M62.989,38.233c0.813,0.291 1.472,1.229 1.472,2.093c0,0.863 -0.659,1.328 -1.472,1.037c-0.812,-0.291 -1.472,-1.228 -1.472,-2.092c0,-0.863 0.66,-1.328 1.472,-1.038Z" style="fill:#9b9bf3;"/><path d="M65.714,46.52c0.813,0.291 1.472,1.229 1.472,2.093c0,0.863 -0.659,1.328 -1.472,1.037c-0.812,-0.291 -1.472,-1.228 -1.472,-2.092c0,-0.864 0.66,-1.329 1.472,-1.038Z" style="fill:#9b9bf3;"/><path d="M66.447,42.589c0.813,0.291 1.472,1.228 1.472,2.092c0,0.864 -0.659,1.329 -1.472,1.038c-0.812,-0.291 -1.472,-1.229 -1.472,-2.092c0,-0.864 0.66,-1.329 1.472,-1.038Z" style="fill:#9b9bf3;"/><path d="M60.015,34.829c0.812,0.291 1.472,1.218 1.472,2.069c0,0.851 -0.66,1.305 -1.472,1.014c-0.812,-0.291 -1.472,-1.218 -1.472,-2.068c0,-0.851 0.66,-1.306 1.472,-1.015Z" style="fill:#9b9bf3;"/><path d="M67.249,39.089c0.812,0.291 1.472,1.228 1.472,2.092c0,0.864 -0.66,1.329 -1.472,1.038c-0.813,-0.291 -1.472,-1.229 -1.472,-2.092c0,-0.864 0.659,-1.329 1.472,-1.038Z" style="fill:#9b9bf3;"/><path d="M63.341,33.633c0.812,0.291 1.472,1.228 1.472,2.092c0,0.864 -0.66,1.329 -1.472,1.038c-0.812,-0.291 -1.472,-1.229 -1.472,-2.092c0,-0.864 0.66,-1.329 1.472,-1.038Z" style="fill:#9b9bf3;"/><path d="M47.18,36.951c0.812,0.291 1.472,1.229 1.472,2.092c0,0.864 -0.66,1.329 -1.472,1.038c-0.813,-0.291 -1.472,-1.228 -1.472,-2.092c0,-0.864 0.659,-1.329 1.472,-1.038Z" style="fill:#9b9bf3;"/><path d="M43.841,38.675c0.813,0.291 1.472,1.228 1.472,2.092c0,0.864 -0.659,1.329 -1.472,1.038c-0.812,-0.291 -1.472,-1.229 -1.472,-2.092c0,-0.864 0.66,-1.329 1.472,-1.038Z" style="fill:#9b9bf3;"/><path d="M46.925,40.704c0.812,0.291 1.472,1.228 1.472,2.092c0,0.864 -0.66,1.329 -1.472,1.038c-0.813,-0.291 -1.472,-1.229 -1.472,-2.092c0,-0.864 0.659,-1.329 1.472,-1.038Z" style="fill:#9b9bf3;"/><path d="M50.783,40.027c0.812,0.291 1.472,1.228 1.472,2.092c0,0.864 -0.66,1.329 -1.472,1.038c-0.813,-0.291 -1.472,-1.229 -1.472,-2.092c0,-0.864 0.659,-1.329 1.472,-1.038Z" style="fill:#9b9bf3;"/><path d="M50.991,35.722c0.812,0.291 1.472,1.229 1.472,2.093c0,0.863 -0.66,1.328 -1.472,1.037c-0.813,-0.291 -1.472,-1.228 -1.472,-2.092c0,-0.864 0.659,-1.329 1.472,-1.038Z" style="fill:#9b9bf3;"/><path d="M48.08,32.274c0.812,0.291 1.472,1.229 1.472,2.092c0,0.864 -0.66,1.329 -1.472,1.038c-0.812,-0.291 -1.472,-1.228 -1.472,-2.092c0,-0.864 0.66,-1.329 1.472,-1.038Z" style="fill:#9b9bf3;"/><path d="M54.786,38.729c0.813,0.291 1.472,1.228 1.472,2.092c0,0.864 -0.659,1.329 -1.472,1.038c-0.812,-0.291 -1.472,-1.229 -1.472,-2.092c0,-0.864 0.66,-1.329 1.472,-1.038Z" style="fill:#9b9bf3;"/><path d="M55.189,35.302c0.813,0.291 1.472,1.228 1.472,2.092c0,0.864 -0.659,1.329 -1.472,1.038c-0.812,-0.291 -1.472,-1.229 -1.472,-2.092c0,-0.864 0.66,-1.329 1.472,-1.038Z" style="fill:#9b9bf3;"/><path d="M52.247,31.348c0.812,0.291 1.472,1.228 1.472,2.092c0,0.864 -0.66,1.329 -1.472,1.038c-0.813,-0.291 -1.472,-1.228 -1.472,-2.092c0,-0.864 0.659,-1.329 1.472,-1.038Z" style="fill:#9b9bf3;"/><path d="M53.956,42.447c0.812,0.291 1.472,1.229 1.472,2.093c0,0.863 -0.66,1.328 -1.472,1.037c-0.813,-0.291 -1.472,-1.228 -1.472,-2.092c0,-0.864 0.659,-1.329 1.472,-1.038Z" style="fill:#9b9bf3;"/><path d="M56.49,31.089c0.813,0.291 1.472,1.228 1.472,2.092c0,0.863 -0.659,1.328 -1.472,1.038c-0.812,-0.291 -1.472,-1.229 -1.472,-2.093c0,-0.863 0.66,-1.328 1.472,-1.037Z" style="fill:#9b9bf3;"/><path d="M59.215,39.375c0.813,0.291 1.472,1.229 1.472,2.093c0,0.863 -0.659,1.328 -1.472,1.037c-0.812,-0.291 -1.472,-1.228 -1.472,-2.092c0,-0.863 0.66,-1.328 1.472,-1.038Z" style="fill:#9b9bf3;"/><path d="M59.949,35.444c0.812,0.291 1.472,1.228 1.472,2.092c0,0.864 -0.66,1.329 -1.472,1.038c-0.813,-0.291 -1.472,-1.228 -1.472,-2.092c0,-0.864 0.659,-1.329 1.472,-1.038Z" style="fill:#9b9bf3;"/><path d="M53.516,27.685c0.813,0.291 1.472,1.217 1.472,2.068c0,0.851 -0.659,1.305 -1.472,1.014c-0.812,-0.291 -1.472,-1.218 -1.472,-2.068c0,-0.851 0.66,-1.305 1.472,-1.014Z" style="fill:#9b9bf3;"/><path d="M60.75,31.944c0.812,0.291 1.472,1.228 1.472,2.092c0,0.864 -0.66,1.329 -1.472,1.038c-0.813,-0.291 -1.472,-1.228 -1.472,-2.092c0,-0.864 0.659,-1.329 1.472,-1.038Z" style="fill:#9b9bf3;"/><path d="M56.842,26.488c0.813,0.291 1.472,1.228 1.472,2.092c0,0.864 -0.659,1.329 -1.472,1.038c-0.812,-0.291 -1.472,-1.228 -1.472,-2.092c0,-0.864 0.66,-1.329 1.472,-1.038Z" style="fill:#9b9bf3;"/><path d="M59.45,49.883c0.812,0.291 1.472,1.228 1.472,2.092c0,0.864 -0.66,1.329 -1.472,1.038c-0.813,-0.291 -1.472,-1.229 -1.472,-2.092c0,-0.864 0.659,-1.329 1.472,-1.038Z" style="fill:#9b9bf3;"/><path d="M56.111,51.607c0.813,0.291 1.472,1.228 1.472,2.092c0,0.864 -0.659,1.329 -1.472,1.038c-0.812,-0.291 -1.472,-1.229 -1.472,-2.093c0,-0.863 0.66,-1.328 1.472,-1.037Z" style="fill:#9b9bf3;"/><path d="M59.195,53.636c0.812,0.291 1.472,1.228 1.472,2.092c0,0.864 -0.66,1.329 -1.472,1.038c-0.813,-0.291 -1.472,-1.229 -1.472,-2.093c0,-0.863 0.659,-1.328 1.472,-1.037Z" style="fill:#9b9bf3;"/><path d="M63.053,52.959c0.812,0.291 1.472,1.228 1.472,2.092c0,0.864 -0.66,1.329 -1.472,1.038c-0.813,-0.291 -1.472,-1.229 -1.472,-2.093c0,-0.863 0.659,-1.328 1.472,-1.037Z" style="fill:#9b9bf3;"/><path d="M63.261,48.654c0.812,0.291 1.472,1.229 1.472,2.092c0,0.864 -0.66,1.329 -1.472,1.038c-0.813,-0.291 -1.472,-1.228 -1.472,-2.092c0,-0.864 0.659,-1.329 1.472,-1.038Z" style="fill:#9b9bf3;"/><path d="M60.35,45.206c0.812,0.291 1.472,1.229 1.472,2.092c0,0.864 -0.66,1.329 -1.472,1.038c-0.813,-0.291 -1.472,-1.228 -1.472,-2.092c0,-0.864 0.659,-1.329 1.472,-1.038Z" style="fill:#9b9bf3;"/><path d="M67.056,51.661c0.813,0.291 1.472,1.228 1.472,2.092c0,0.864 -0.659,1.329 -1.472,1.038c-0.812,-0.291 -1.472,-1.229 -1.472,-2.092c0,-0.864 0.66,-1.329 1.472,-1.038Z" style="fill:#9b9bf3;"/><path d="M67.459,48.234c0.812,0.291 1.472,1.228 1.472,2.092c0,0.863 -0.66,1.329 -1.472,1.038c-0.812,-0.291 -1.472,-1.229 -1.472,-2.093c0,-0.863 0.66,-1.328 1.472,-1.037Z" style="fill:#9b9bf3;"/><path d="M64.517,44.28c0.812,0.291 1.472,1.228 1.472,2.092c0,0.864 -0.66,1.329 -1.472,1.038c-0.813,-0.291 -1.472,-1.229 -1.472,-2.092c0,-0.864 0.659,-1.329 1.472,-1.038Z" style="fill:#9b9bf3;"/><path d="M66.226,55.379c0.812,0.291 1.472,1.229 1.472,2.092c0,0.864 -0.66,1.329 -1.472,1.038c-0.813,-0.291 -1.472,-1.228 -1.472,-2.092c0,-0.864 0.659,-1.329 1.472,-1.038Z" style="fill:#9b9bf3;"/><path d="M68.76,44.02c0.813,0.291 1.472,1.229 1.472,2.093c0,0.863 -0.659,1.328 -1.472,1.037c-0.812,-0.291 -1.472,-1.228 -1.472,-2.092c0,-0.864 0.66,-1.329 1.472,-1.038Z" style="fill:#9b9bf3;"/><path d="M71.485,52.307c0.813,0.291 1.472,1.229 1.472,2.092c0,0.864 -0.659,1.329 -1.472,1.038c-0.812,-0.291 -1.472,-1.228 -1.472,-2.092c0,-0.864 0.66,-1.329 1.472,-1.038Z" style="fill:#9b9bf3;"/><path d="M72.219,48.376c0.812,0.291 1.472,1.228 1.472,2.092c0,0.864 -0.66,1.329 -1.472,1.038c-0.813,-0.291 -1.472,-1.229 -1.472,-2.092c0,-0.864 0.659,-1.329 1.472,-1.038Z" style="fill:#9b9bf3;"/><path d="M65.786,40.616c0.813,0.291 1.472,1.218 1.472,2.069c0,0.851 -0.659,1.305 -1.472,1.014c-0.812,-0.291 -1.472,-1.218 -1.472,-2.068c0,-0.851 0.66,-1.306 1.472,-1.015Z" style="fill:#9b9bf3;"/><path d="M73.02,44.876c0.812,0.291 1.472,1.228 1.472,2.092c0,0.864 -0.66,1.329 -1.472,1.038c-0.813,-0.291 -1.472,-1.229 -1.472,-2.092c0,-0.864 0.659,-1.329 1.472,-1.038Z" style="fill:#9b9bf3;"/><path d="M69.112,39.42c0.813,0.291 1.472,1.228 1.472,2.092c0,0.864 -0.659,1.329 -1.472,1.038c-0.812,-0.291 -1.472,-1.229 -1.472,-2.092c0,-0.864 0.66,-1.329 1.472,-1.038Z" style="fill:#9b9bf3;"/></g></g></g></g></g></g></svg>