<?xml version="1.0" encoding="UTF-8" standalone="no"?><!DOCTYPE svg PUBLIC "-//W3C//DTD SVG 1.1//EN" "http://www.w3.org/Graphics/SVG/1.1/DTD/svg11.dtd"><svg width="100%" height="100%" viewBox="0 0 106 115" version="1.1" xmlns="http://www.w3.org/2000/svg" xmlns:xlink="http://www.w3.org/1999/xlink" xml:space="preserve" xmlns:serif="http://www.serif.com/" style="fill-rule:evenodd;clip-rule:evenodd;stroke-linecap:round;stroke-linejoin:round;stroke-miterlimit:1.5;"><g id="Office_Hours"><path d="M105.092,4.311c0,-2.379 -1.932,-4.311 -4.311,-4.311l-96.246,0c-2.379,0 -4.311,1.932 -4.311,4.311l0,105.72c0,2.379 1.932,4.311 4.311,4.311l96.246,0c2.379,0 4.311,-1.932 4.311,-4.311l0,-105.72Z" style="fill:#b6f9f3;"/><text x="6.592px" y="19.739px" style="font-family:'Helvetica';font-size:16.571px;">Ofﬁce Hours</text><g><rect x="7.239" y="30.017" width="88.404" height="73.67" style="fill:none;stroke:#000;stroke-width:2px;"/><g><g><path d="M7.239,37.384l88.403,0" style="fill:none;stroke:#000;stroke-width:2px;"/><path d="M7.239,44.751l88.403,0" style="fill:none;stroke:#000;stroke-width:2px;"/><path d="M7.239,52.118l88.403,0" style="fill:none;stroke:#000;stroke-width:2px;"/><path d="M7.239,59.485l88.403,0" style="fill:none;stroke:#000;stroke-width:2px;"/><path d="M7.239,66.852l88.403,0" style="fill:none;stroke:#000;stroke-width:2px;"/><path d="M7.239,74.219l88.403,0" style="fill:none;stroke:#000;stroke-width:2px;"/><path d="M7.239,81.586l88.403,0" style="fill:none;stroke:#000;stroke-width:2px;"/><path d="M7.239,88.953l88.403,0" style="fill:none;stroke:#000;stroke-width:2px;"/><path d="M7.239,96.32l88.403,0" style="fill:none;stroke:#000;stroke-width:2px;"/></g><g><path d="M24.929,30.017l0,73.67" style="fill:none;stroke:#000;stroke-width:2px;"/><path d="M42.619,30.017l0,73.67" style="fill:none;stroke:#000;stroke-width:2px;"/><path d="M60.309,31.017l0,73.67" style="fill:none;stroke:#000;stroke-width:2px;"/><path d="M78,30.017l0,73.67" style="fill:none;stroke:#000;stroke-width:2px;"/></g></g></g></g></svg>