<?xml version="1.0" encoding="UTF-8" standalone="no"?><!DOCTYPE svg PUBLIC "-//W3C//DTD SVG 1.1//EN" "http://www.w3.org/Graphics/SVG/1.1/DTD/svg11.dtd"><svg width="100%" height="100%" viewBox="0 0 163 119" version="1.1" xmlns="http://www.w3.org/2000/svg" xmlns:xlink="http://www.w3.org/1999/xlink" xml:space="preserve" xmlns:serif="http://www.serif.com/" style="fill-rule:evenodd;clip-rule:evenodd;stroke-linecap:round;stroke-linejoin:round;stroke-miterlimit:1.5;"><g id="Seattle_skyline"><rect x="4.31" y="4" width="153.704" height="110.881" style="fill:#00ffea;stroke:#000;stroke-width:8px;"/><path d="M23.952,49.962l0,64.939l-6.412,0l0,-64.939l6.412,0Zm-8.67,27.098l0,36.129l-7.591,0l0,-36.129l7.591,0Z" style="stroke:#000;stroke-width:8px;"/><g><path d="M79.023,50.944l-8.694,0c3.423,21.515 3.458,42.519 0,62.933l8.694,0c-3.462,-21.379 -3.373,-42.346 0,-62.933Z" style="fill:none;stroke:#000;stroke-width:6.5px;"/><rect x="73.891" y="61.469" width="1.553" height="53.202" style="stroke:#000;stroke-width:4.5px;"/><ellipse cx="75.188" cy="54.583" rx="24.104" ry="6.823" style="stroke:#000;stroke-width:4px;"/><path d="M74.973,37.458l0.59,23.608l-1.181,0l0.591,-23.608Z" style="stroke:#000;stroke-width:4px;"/></g><path d="M114.454,90.254l0,23.983l-3.141,0l0,-23.983l3.141,0Zm-7.386,14.935l0,8.824l-4.328,0l0,-8.824l4.328,0Zm3.724,-5.671l0,14.118l-3.115,0l0,-14.118l3.115,0Z" style="stroke:#000;stroke-width:4px;"/><path d="M28.963,86.358l5.971,0l0,6.714l5.311,0l0,-6.257l4.629,0l0,27.269l-3.506,0l0,0.01l-6.434,0l0,0.233l-5.971,0l0,-27.969Zm16.881,-17.032l4.622,0l0,6.776l6.376,0l0,37.717l-6.376,0l0,0.339l-4.622,0l0,-44.832Z" style="stroke:#000;stroke-width:8px;"/><path d="M121.237,77.296l4.239,0l0,-24.227l7.126,0l0,3.433l7.689,0l0,-37.521l7.401,0l0,94.647l-6.729,0l0,1.832l-8.93,0l0,-0.369l-6.557,0l0,-1.213l-4.239,0l0,-36.582Zm27.683,-5.872l6.718,0l0,42.552l-6.718,0l0,-42.552Z" style="stroke:#000;stroke-width:4px;"/></g></svg>