<?xml version="1.0" encoding="UTF-8" standalone="no"?><!DOCTYPE svg PUBLIC "-//W3C//DTD SVG 1.1//EN" "http://www.w3.org/Graphics/SVG/1.1/DTD/svg11.dtd"><svg width="100%" height="100%" viewBox="0 0 92 94" version="1.1" xmlns="http://www.w3.org/2000/svg" xmlns:xlink="http://www.w3.org/1999/xlink" xml:space="preserve" xmlns:serif="http://www.serif.com/" style="fill-rule:evenodd;clip-rule:evenodd;stroke-linecap:round;stroke-linejoin:round;stroke-miterlimit:1.5;"><g id="silas_head"><ellipse id="head" cx="45.909" cy="47.041" rx="45.312" ry="46.782" style="fill:url(#_Linear1);"/><path id="hair" d="M2.378,34.024c5.466,-19.494 22.897,-33.764 43.531,-33.764c18.966,0 35.226,12.057 41.976,29.145c-5.913,1.659 -16.767,2.323 -18.492,1.952c-1.929,-0.415 -15.427,0.749 -15.763,0c-0.336,-0.749 3.852,-5.325 3.852,-5.325l-13.393,5.325l-4.885,2.667l4.885,-7.992l-14.565,7.992l-7.636,0l2.648,-5.252l-11.715,5.252l-10.443,0Z" style="fill:#6d4730;"/><g id="eye1"><circle cx="26.779" cy="46.063" r="8.59" style="fill:#fff;"/><circle cx="26.779" cy="46.063" r="4.091" style="stroke:#000;stroke-width:0.2px;"/></g><g id="eye2"><circle cx="67.808" cy="46.063" r="8.59" style="fill:#fff;"/><circle cx="67.808" cy="46.063" r="4.091" style="stroke:#000;stroke-width:0.2px;"/></g><path id="mouth" d="M37.452,77.631c4.319,0.152 12.957,0.455 17.504,0c3.366,-0.337 7.345,-1.792 9.775,-2.732c1.747,-0.676 3.786,-2.167 4.806,-2.912" style="fill:none;stroke:#000;stroke-width:0.9px;"/><path id="nose" d="M45.854,51.615l-3.246,13.145l13.316,0" style="fill:none;stroke:#000;stroke-width:0.95px;"/></g><defs><linearGradient id="_Linear1" x1="0" y1="0" x2="1" y2="0" gradientUnits="userSpaceOnUse" gradientTransform="matrix(69.6962,37.9629,-37.9629,69.6962,18.1891,34.0243)"><stop offset="0" style="stop-color:#ffdab9;stop-opacity:1"/><stop offset="1" style="stop-color:#ffd2aa;stop-opacity:1"/></linearGradient></defs></svg>