<?xml version="1.0" encoding="UTF-8" standalone="no"?><!DOCTYPE svg PUBLIC "-//W3C//DTD SVG 1.1//EN" "http://www.w3.org/Graphics/SVG/1.1/DTD/svg11.dtd"><svg width="100%" height="100%" viewBox="0 0 171 113" version="1.1" xmlns="http://www.w3.org/2000/svg" xmlns:xlink="http://www.w3.org/1999/xlink" xml:space="preserve" xmlns:serif="http://www.serif.com/" style="fill-rule:evenodd;clip-rule:evenodd;stroke-linecap:round;stroke-linejoin:round;stroke-miterlimit:1.5;"><g id="unsheared_monitor"><rect id="monitor" x="3" y="3" width="164.578" height="106.823" style="fill:#f4f0bf;stroke:#010808;stroke-width:5px;"/><g><path d="M92.515,89.953l-22.037,7.634l-7.661,-14.846l-14.997,-7.828l-9.732,28.892l-11.126,-20.27l-12.683,14.068" style="fill:none;stroke:#010808;stroke-width:5px;"/><path d="M10.249,71.069l0,34.256l88.168,0" style="fill:none;stroke:#010808;stroke-width:3px;"/></g><g><g><rect x="112.473" y="64.769" width="12.448" height="40.444" style="fill:#41f725;stroke:#010808;stroke-width:5px;"/><rect x="126.101" y="52.084" width="11.899" height="53.178" style="fill:#885dda;stroke:#010808;stroke-width:5px;"/><rect x="139.03" y="36.76" width="8.275" height="68.399" style="fill:#da5d7e;stroke:#010808;stroke-width:5px;"/><rect x="148.434" y="27.214" width="10.917" height="77.911" style="fill:#5dcdda;stroke:#010808;stroke-width:5px;"/></g><path d="M104.969,25.47l0,80.326l59.562,0" style="fill:none;stroke:#010808;stroke-width:3px;"/></g><g><path d="M10.087,11.601l0,56.187l90.11,0" style="fill:none;stroke:#010808;stroke-width:3px;"/><g><g opacity="0.720843"><circle cx="19.814" cy="15.127" r="1.647" style="fill:#ff0016;"/><circle cx="24.746" cy="16.911" r="1.647" style="fill:#ff0016;"/><circle cx="21.332" cy="19.932" r="1.647" style="fill:#ff0016;"/><circle cx="17.032" cy="18.755" r="1.647" style="fill:#ff0016;"/><circle cx="27.865" cy="21.418" r="1.647" style="fill:#ff0016;"/><circle cx="29.89" cy="18.054" r="1.647" style="fill:#ff0016;"/><circle cx="23.944" cy="23.173" r="1.647" style="fill:#ff0016;"/><circle cx="18.857" cy="24.253" r="1.647" style="fill:#ff0016;"/><circle cx="23.857" cy="12.143" r="1.647" style="fill:#ff0016;"/><circle cx="28.16" cy="26.843" r="1.647" style="fill:#ff0016;"/><circle cx="33.289" cy="23.432" r="1.647" style="fill:#ff0016;"/><circle cx="23.515" cy="28.9" r="1.647" style="fill:#ff0016;"/><circle cx="34.615" cy="27.976" r="1.647" style="fill:#ff0016;"/><circle cx="37.414" cy="25.299" r="1.647" style="fill:#ff0016;"/><circle cx="30.087" cy="31.119" r="1.647" style="fill:#ff0016;"/><circle cx="34.667" cy="34.737" r="1.647" style="fill:#ff0016;"/><circle cx="38.296" cy="40.997" r="1.647" style="fill:#ff0016;"/><circle cx="39.473" cy="36.084" r="1.647" style="fill:#ff0016;"/><circle cx="45.006" cy="45.686" r="1.647" style="fill:#ff0016;"/><circle cx="51.938" cy="50.182" r="1.647" style="fill:#ff0016;"/><circle cx="56.763" cy="53.173" r="1.647" style="fill:#ff0016;"/><circle cx="63.49" cy="56.56" r="1.647" style="fill:#ff0016;"/><circle cx="70.188" cy="56.167" r="1.647" style="fill:#ff0016;"/><circle cx="65.719" cy="52.461" r="1.647" style="fill:#ff0016;"/><circle cx="75.92" cy="57.8" r="1.647" style="fill:#ff0016;"/><circle cx="79.38" cy="62.36" r="1.647" style="fill:#ff0016;"/><circle cx="83.037" cy="58.336" r="1.647" style="fill:#ff0016;"/><circle cx="39.141" cy="31.41" r="1.647" style="fill:#ff0016;"/><circle cx="42.451" cy="28.026" r="1.647" style="fill:#ff0016;"/><circle cx="45.006" cy="33.203" r="1.647" style="fill:#ff0016;"/><circle cx="46.098" cy="29.065" r="1.647" style="fill:#ff0016;"/><circle cx="49.567" cy="33.4" r="1.647" style="fill:#ff0016;"/><circle cx="46.934" cy="42.244" r="1.647" style="fill:#ff0016;"/><circle cx="52.556" cy="38.468" r="1.647" style="fill:#ff0016;"/><circle cx="50.756" cy="45.256" r="1.647" style="fill:#ff0016;"/><circle cx="54.956" cy="42.511" r="1.647" style="fill:#ff0016;"/><circle cx="54.958" cy="33.638" r="1.647" style="fill:#ff0016;"/><circle cx="57.09" cy="38.698" r="1.647" style="fill:#ff0016;"/><circle cx="54.748" cy="46.76" r="1.647" style="fill:#ff0016;"/><circle cx="59.82" cy="42.838" r="1.647" style="fill:#ff0016;"/><circle cx="65.55" cy="44.092" r="1.647" style="fill:#ff0016;"/><circle cx="62.205" cy="47.414" r="1.647" style="fill:#ff0016;"/><circle cx="60.76" cy="51.903" r="1.647" style="fill:#ff0016;"/><circle cx="58.259" cy="48.726" r="1.647" style="fill:#ff0016;"/><circle cx="67.127" cy="47.978" r="1.647" style="fill:#ff0016;"/><circle cx="66.7" cy="59.288" r="1.647" style="fill:#ff0016;"/><circle cx="71.805" cy="61.219" r="1.647" style="fill:#ff0016;"/><circle cx="69.952" cy="52.087" r="1.647" style="fill:#ff0016;"/><circle cx="74.985" cy="53.261" r="1.647" style="fill:#ff0016;"/><circle cx="79.481" cy="56.117" r="1.647" style="fill:#ff0016;"/><circle cx="73.001" cy="48.255" r="1.647" style="fill:#ff0016;"/><circle cx="77.721" cy="50.317" r="1.647" style="fill:#ff0016;"/><circle cx="81.901" cy="52.495" r="1.647" style="fill:#ff0016;"/><circle cx="83.627" cy="62.678" r="1.647" style="fill:#ff0016;"/><circle cx="85.901" cy="54.362" r="1.647" style="fill:#ff0016;"/><circle cx="62.767" cy="39.849" r="1.647" style="fill:#ff0016;"/><circle cx="43.202" cy="37.668" r="1.647" style="fill:#ff0016;"/><circle cx="42.791" cy="41.946" r="1.647" style="fill:#ff0016;"/><circle cx="48.3" cy="37.89" r="1.647" style="fill:#ff0016;"/></g></g><g><g><g opacity="0.720843"><circle cx="20.504" cy="58.429" r="1.518" style="fill:#9b9bf3;"/><circle cx="17.062" cy="61.26" r="1.518" style="fill:#9b9bf3;"/><circle cx="20.241" cy="62.157" r="1.518" style="fill:#9b9bf3;"/><circle cx="24.219" cy="60.16" r="1.518" style="fill:#9b9bf3;"/><circle cx="24.434" cy="55.914" r="1.518" style="fill:#9b9bf3;"/><circle cx="21.432" cy="53.58" r="1.518" style="fill:#9b9bf3;"/><circle cx="28.347" cy="57.511" r="1.518" style="fill:#9b9bf3;"/><circle cx="28.763" cy="54.047" r="1.518" style="fill:#9b9bf3;"/><circle cx="25.729" cy="51.235" r="1.518" style="fill:#9b9bf3;"/><circle cx="27.491" cy="61.406" r="1.518" style="fill:#9b9bf3;"/><circle cx="30.104" cy="49.509" r="1.518" style="fill:#9b9bf3;"/><circle cx="32.914" cy="56.6" r="1.518" style="fill:#9b9bf3;"/><circle cx="33.67" cy="52.532" r="1.518" style="fill:#9b9bf3;"/><ellipse cx="27.038" cy="47.218" rx="1.518" ry="1.495" style="fill:#9b9bf3;"/><circle cx="34.496" cy="48.86" r="1.518" style="fill:#9b9bf3;"/><circle cx="30.467" cy="44.925" r="1.518" style="fill:#9b9bf3;"/><circle cx="41.313" cy="48.463" r="1.518" style="fill:#9b9bf3;"/><circle cx="38.975" cy="46.335" r="1.518" style="fill:#9b9bf3;"/><circle cx="35.817" cy="45.038" r="1.518" style="fill:#9b9bf3;"/><circle cx="37.87" cy="51.295" r="1.518" style="fill:#9b9bf3;"/><circle cx="41.05" cy="52.191" r="1.518" style="fill:#9b9bf3;"/><circle cx="45.028" cy="50.195" r="1.518" style="fill:#9b9bf3;"/><circle cx="45.242" cy="45.948" r="1.518" style="fill:#9b9bf3;"/><circle cx="42.241" cy="43.615" r="1.518" style="fill:#9b9bf3;"/><circle cx="49.156" cy="47.545" r="1.518" style="fill:#9b9bf3;"/><circle cx="49.571" cy="44.082" r="1.518" style="fill:#9b9bf3;"/><circle cx="46.537" cy="41.269" r="1.518" style="fill:#9b9bf3;"/><circle cx="48.299" cy="51.44" r="1.518" style="fill:#9b9bf3;"/><circle cx="50.913" cy="39.544" r="1.518" style="fill:#9b9bf3;"/><circle cx="53.722" cy="46.634" r="1.518" style="fill:#9b9bf3;"/><circle cx="54.479" cy="42.567" r="1.518" style="fill:#9b9bf3;"/><ellipse cx="47.846" cy="37.252" rx="1.518" ry="1.495" style="fill:#9b9bf3;"/><circle cx="55.305" cy="38.894" r="1.518" style="fill:#9b9bf3;"/><circle cx="51.276" cy="34.96" r="1.518" style="fill:#9b9bf3;"/><circle cx="35.373" cy="37.738" r="1.518" style="fill:#9b9bf3;"/><circle cx="31.931" cy="40.569" r="1.518" style="fill:#9b9bf3;"/><circle cx="35.11" cy="41.466" r="1.518" style="fill:#9b9bf3;"/><circle cx="39.088" cy="39.469" r="1.518" style="fill:#9b9bf3;"/><circle cx="39.302" cy="35.223" r="1.518" style="fill:#9b9bf3;"/><circle cx="36.301" cy="32.889" r="1.518" style="fill:#9b9bf3;"/><circle cx="43.216" cy="36.82" r="1.518" style="fill:#9b9bf3;"/><circle cx="43.631" cy="33.356" r="1.518" style="fill:#9b9bf3;"/><circle cx="40.598" cy="30.544" r="1.518" style="fill:#9b9bf3;"/><circle cx="42.36" cy="40.715" r="1.518" style="fill:#9b9bf3;"/><circle cx="44.973" cy="28.818" r="1.518" style="fill:#9b9bf3;"/><circle cx="47.783" cy="35.909" r="1.518" style="fill:#9b9bf3;"/><circle cx="48.539" cy="31.841" r="1.518" style="fill:#9b9bf3;"/><ellipse cx="41.906" cy="26.527" rx="1.518" ry="1.495" style="fill:#9b9bf3;"/><circle cx="49.365" cy="28.168" r="1.518" style="fill:#9b9bf3;"/><circle cx="45.336" cy="24.234" r="1.518" style="fill:#9b9bf3;"/><circle cx="55.145" cy="28.085" r="1.518" style="fill:#9b9bf3;"/><circle cx="51.702" cy="30.916" r="1.518" style="fill:#9b9bf3;"/><circle cx="54.882" cy="31.813" r="1.518" style="fill:#9b9bf3;"/><circle cx="58.86" cy="29.816" r="1.518" style="fill:#9b9bf3;"/><circle cx="59.074" cy="25.569" r="1.518" style="fill:#9b9bf3;"/><circle cx="56.073" cy="23.236" r="1.518" style="fill:#9b9bf3;"/><circle cx="62.988" cy="27.167" r="1.518" style="fill:#9b9bf3;"/><circle cx="63.403" cy="23.703" r="1.518" style="fill:#9b9bf3;"/><circle cx="60.369" cy="20.891" r="1.518" style="fill:#9b9bf3;"/><circle cx="62.131" cy="31.062" r="1.518" style="fill:#9b9bf3;"/><circle cx="64.745" cy="19.165" r="1.518" style="fill:#9b9bf3;"/><circle cx="67.555" cy="26.256" r="1.518" style="fill:#9b9bf3;"/><circle cx="68.311" cy="22.188" r="1.518" style="fill:#9b9bf3;"/><ellipse cx="61.678" cy="16.874" rx="1.518" ry="1.495" style="fill:#9b9bf3;"/><circle cx="69.137" cy="18.515" r="1.518" style="fill:#9b9bf3;"/><circle cx="65.108" cy="14.581" r="1.518" style="fill:#9b9bf3;"/><circle cx="48.444" cy="23.412" r="1.518" style="fill:#9b9bf3;"/><circle cx="45.002" cy="26.244" r="1.518" style="fill:#9b9bf3;"/><circle cx="48.181" cy="27.141" r="1.518" style="fill:#9b9bf3;"/><circle cx="52.159" cy="25.144" r="1.518" style="fill:#9b9bf3;"/><circle cx="52.373" cy="20.897" r="1.518" style="fill:#9b9bf3;"/><circle cx="49.372" cy="18.564" r="1.518" style="fill:#9b9bf3;"/><circle cx="56.287" cy="22.495" r="1.518" style="fill:#9b9bf3;"/><circle cx="56.702" cy="19.031" r="1.518" style="fill:#9b9bf3;"/><circle cx="53.668" cy="16.218" r="1.518" style="fill:#9b9bf3;"/><circle cx="55.431" cy="26.39" r="1.518" style="fill:#9b9bf3;"/><circle cx="58.044" cy="14.493" r="1.518" style="fill:#9b9bf3;"/><circle cx="60.854" cy="21.583" r="1.518" style="fill:#9b9bf3;"/><circle cx="61.61" cy="17.516" r="1.518" style="fill:#9b9bf3;"/><ellipse cx="54.977" cy="12.202" rx="1.518" ry="1.495" style="fill:#9b9bf3;"/><circle cx="62.436" cy="13.843" r="1.518" style="fill:#9b9bf3;"/><circle cx="58.407" cy="9.909" r="1.518" style="fill:#9b9bf3;"/><circle cx="61.096" cy="31.693" r="1.518" style="fill:#9b9bf3;"/><circle cx="57.653" cy="34.524" r="1.518" style="fill:#9b9bf3;"/><circle cx="60.833" cy="35.421" r="1.518" style="fill:#9b9bf3;"/><circle cx="64.811" cy="33.424" r="1.518" style="fill:#9b9bf3;"/><circle cx="65.025" cy="29.177" r="1.518" style="fill:#9b9bf3;"/><circle cx="62.024" cy="26.844" r="1.518" style="fill:#9b9bf3;"/><circle cx="68.939" cy="30.775" r="1.518" style="fill:#9b9bf3;"/><circle cx="69.354" cy="27.311" r="1.518" style="fill:#9b9bf3;"/><circle cx="66.32" cy="24.499" r="1.518" style="fill:#9b9bf3;"/><circle cx="68.082" cy="34.67" r="1.518" style="fill:#9b9bf3;"/><circle cx="70.696" cy="22.773" r="1.518" style="fill:#9b9bf3;"/><circle cx="73.505" cy="29.863" r="1.518" style="fill:#9b9bf3;"/><circle cx="74.261" cy="25.796" r="1.518" style="fill:#9b9bf3;"/><ellipse cx="67.629" cy="20.482" rx="1.518" ry="1.495" style="fill:#9b9bf3;"/><circle cx="75.087" cy="22.123" r="1.518" style="fill:#9b9bf3;"/><circle cx="71.058" cy="18.189" r="1.518" style="fill:#9b9bf3;"/></g></g></g></g></g></svg>